<?xml version="1.0" encoding="UTF-8" standalone="no"?>
<svg
   xmlns:dc="http://purl.org/dc/elements/1.1/"
   xmlns:cc="http://creativecommons.org/ns#"
   xmlns:rdf="http://www.w3.org/1999/02/22-rdf-syntax-ns#"
   xmlns:svg="http://www.w3.org/2000/svg"
   xmlns="http://www.w3.org/2000/svg"
   viewBox="0 0 1437.5 42.5"
   height="42.5"
   width="1437.5"
   xml:space="preserve"
   version="1.1"
   id="svg2"><metadata
     id="metadata8"><rdf:RDF><cc:Work
         rdf:about=""><dc:format>image/svg+xml</dc:format><dc:type
           rdf:resource="http://purl.org/dc/dcmitype/StillImage" /></cc:Work></rdf:RDF></metadata><defs
     id="defs6"><clipPath
       id="clipPath16"
       clipPathUnits="userSpaceOnUse"><path
         id="path18"
         d="M 0,34 1150,34 1150,0 0,0 0,34 Z" /></clipPath></defs><g
     transform="matrix(1.25,0,0,-1.25,0,42.5)"
     id="g10"><g
       id="g12"><g
         clip-path="url(#clipPath16)"
         id="g14"><g
           transform="translate(1121.252,34)"
           id="g20"><path
             id="path22"
             style="fill:#ffffff;fill-opacity:1;fill-rule:nonzero;stroke:none"
             d="m 0,0 c -14.375,0 -14.375,-14 -28.749,-14 -14.374,0 -14.374,14 -28.748,14 -14.374,0 -14.374,-14 -28.748,-14 -14.375,0 -14.375,14 -28.75,14 -14.374,0 -14.374,-14 -28.748,-14 -14.374,0 -14.374,14 -28.748,14 -14.374,0 -14.374,-14 -28.749,-14 -14.375,0 -14.375,14 -28.749,14 -14.374,0 -14.374,-14 -28.749,-14 -14.375,0 -14.375,14 -28.75,14 -14.371,0 -14.371,-14 -28.743,-14 -14.375,0 -14.375,14 -28.75,14 -14.373,0 -14.373,-14 -28.745,-14 -14.374,0 -14.374,14 -28.747,14 -14.373,0 -14.373,-14 -28.747,-14 -14.372,0 -14.372,14 -28.745,14 -14.374,0 -14.374,-14 -28.748,-14 -14.375,0 -14.375,14 -28.751,14 -14.374,0 -14.374,-14 -28.748,-14 -14.374,0 -14.374,14 -28.748,14 -14.374,0 -14.374,-14 -28.748,-14 -14.374,0 -14.374,14 -28.748,14 -14.375,0 -14.375,-14 -28.75,-14 -14.376,0 -14.376,14 -28.752,14 -14.375,0 -14.375,-14 -28.75,-14 -14.376,0 -14.376,14 -28.752,14 -14.375,0 -14.375,-14 -28.75,-14 -14.376,0 -14.376,14 -28.751,14 -14.376,0 -14.376,-14 -28.752,-14 -14.376,0 -14.376,14 -28.753,14 -14.373,0 -14.373,-14 -28.747,-14 -14.375,0 -14.375,14 -28.75,14 -14.375,0 -14.375,-14 -28.751,-14 -14.377,0 -14.377,14 -28.754,14 -14.377,0 -14.377,-14 -28.755,-14 -14.378,0 -14.378,14 -28.756,14 -14.377,0 -14.377,-14 -28.755,-14 -14.379,0 -14.379,14 -28.759,14 -14.379,0 -14.379,-14 -28.759,-14 l 0,-20 1150,0 0,20 C 14.374,-14 14.374,0 0,0" /></g></g></g></g></svg>